G75*
G70*
%OFA0B0*%
%FSLAX24Y24*%
%IPPOS*%
%LPD*%
%AMOC8*
5,1,8,0,0,1.08239X$1,22.5*
%
%ADD10C,0.0000*%
%ADD11R,0.0910X0.0280*%
%ADD12R,0.0434X0.0473*%
%ADD13R,0.0131X0.0414*%
%ADD14R,0.0414X0.0131*%
%ADD15R,0.0985X0.0985*%
%ADD16R,0.0453X0.0465*%
%ADD17OC8,0.0780*%
%ADD18R,0.0316X0.0316*%
D10*
X006793Y006773D02*
X006793Y011439D01*
X014254Y011439D01*
X014254Y006773D01*
X006793Y006773D01*
D11*
X009352Y007206D03*
X010494Y007206D03*
D12*
X008565Y009569D03*
X007895Y009569D03*
X007856Y010769D03*
X008387Y010769D03*
X009057Y010769D03*
X007187Y010769D03*
D13*
X009450Y010175D03*
X009628Y010175D03*
X009805Y010175D03*
X009982Y010175D03*
X010159Y010175D03*
X010336Y010175D03*
X010513Y010175D03*
X010513Y008533D03*
X010336Y008533D03*
X010159Y008533D03*
X009982Y008533D03*
X009805Y008533D03*
X009628Y008533D03*
X009450Y008533D03*
D14*
X009155Y008820D03*
X009155Y008998D03*
X009155Y009175D03*
X009155Y009352D03*
X009155Y009529D03*
X009155Y009706D03*
X009155Y009883D03*
X010797Y009883D03*
X010797Y009706D03*
X010797Y009529D03*
X010797Y009352D03*
X010797Y009175D03*
X010797Y008998D03*
X010797Y008820D03*
D15*
X009982Y009352D03*
D16*
X010326Y010769D03*
X009637Y010769D03*
X007885Y010139D03*
X007196Y010139D03*
X009578Y007836D03*
X010267Y007836D03*
D17*
X012612Y008037D03*
X013612Y008037D03*
X013612Y009037D03*
X012612Y009037D03*
X012612Y010037D03*
X013612Y010037D03*
D18*
X011360Y009470D03*
X011360Y009076D03*
X011320Y008624D03*
X011301Y008230D03*
X011143Y007836D03*
X010750Y007836D03*
X008643Y008230D03*
X008643Y008643D03*
X008210Y008643D03*
X007797Y008643D03*
X007797Y007954D03*
M02*
