G75*
G70*
%OFA0B0*%
%FSLAX24Y24*%
%IPPOS*%
%LPD*%
%AMOC8*
5,1,8,0,0,1.08239X$1,22.5*
%
%ADD10C,0.0000*%
%ADD11C,0.0020*%
%ADD12C,0.0050*%
D10*
X008055Y002798D02*
X013886Y002595D01*
X013886Y003046D01*
X013883Y003097D01*
X013884Y003148D01*
X013888Y003199D01*
X013896Y003250D01*
X013908Y003299D01*
X013924Y003348D01*
X013943Y003396D01*
X013966Y003441D01*
X013992Y003485D01*
X014021Y003527D01*
X014054Y003567D01*
X014089Y003604D01*
X014127Y003638D01*
X014167Y003670D01*
X014210Y003698D01*
X014254Y003723D01*
X014301Y003745D01*
X014348Y003763D01*
X014397Y003778D01*
X014447Y003788D01*
X014498Y003796D01*
X014720Y003796D01*
X014771Y003788D01*
X014822Y003777D01*
X014871Y003762D01*
X014920Y003744D01*
X014967Y003723D01*
X015012Y003698D01*
X015056Y003670D01*
X015097Y003639D01*
X015137Y003605D01*
X015173Y003568D01*
X015207Y003529D01*
X015238Y003487D01*
X015266Y003443D01*
X015291Y003398D01*
X015312Y003351D01*
X015330Y003302D01*
X015345Y003252D01*
X015356Y003202D01*
X015363Y003150D01*
X015367Y003099D01*
X015366Y003047D01*
X015363Y002995D01*
X015363Y002996D02*
X015363Y002595D01*
X021356Y002796D01*
X021356Y002795D02*
X021392Y002798D01*
X021428Y002805D01*
X021463Y002816D01*
X021497Y002830D01*
X021529Y002847D01*
X021560Y002867D01*
X021588Y002891D01*
X021613Y002917D01*
X021636Y002946D01*
X021655Y002977D01*
X021671Y003010D01*
X021684Y003044D01*
X021694Y003079D01*
X021699Y003115D01*
X021701Y003152D01*
X021701Y004468D01*
X021699Y004504D01*
X021693Y004540D01*
X021684Y004574D01*
X021671Y004608D01*
X021655Y004640D01*
X021635Y004670D01*
X021613Y004698D01*
X021587Y004724D01*
X021559Y004746D01*
X021529Y004766D01*
X021497Y004782D01*
X021463Y004795D01*
X021429Y004804D01*
X021393Y004810D01*
X021357Y004812D01*
X008071Y004812D01*
X008071Y004813D02*
X008035Y004811D01*
X008000Y004806D01*
X007965Y004797D01*
X007931Y004785D01*
X007898Y004770D01*
X007868Y004751D01*
X007839Y004730D01*
X007812Y004706D01*
X007788Y004679D01*
X007767Y004650D01*
X007748Y004620D01*
X007733Y004587D01*
X007721Y004553D01*
X007712Y004518D01*
X007707Y004483D01*
X007705Y004447D01*
X007705Y003160D01*
X007707Y003123D01*
X007713Y003086D01*
X007722Y003050D01*
X007735Y003015D01*
X007752Y002982D01*
X007771Y002951D01*
X007794Y002922D01*
X007820Y002895D01*
X007849Y002871D01*
X007879Y002850D01*
X007912Y002832D01*
X007946Y002818D01*
X007982Y002807D01*
X008018Y002800D01*
X008055Y002797D01*
D11*
X015551Y002877D02*
X015588Y002913D01*
X015661Y002913D01*
X015698Y002950D01*
X015661Y002987D01*
X015551Y002987D01*
X015772Y002987D02*
X015845Y002987D01*
X015808Y003023D02*
X015808Y002877D01*
X015772Y002840D01*
X015698Y002840D02*
X015588Y002840D01*
X015551Y002877D01*
X015919Y002913D02*
X016066Y002913D01*
X016066Y002877D02*
X016066Y002950D01*
X016029Y002987D01*
X015956Y002987D01*
X015919Y002950D01*
X015919Y002913D01*
X015956Y002840D02*
X016029Y002840D01*
X016066Y002877D01*
X016140Y002840D02*
X016250Y002840D01*
X016287Y002877D01*
X016287Y002950D01*
X016250Y002987D01*
X016140Y002987D01*
X016140Y002803D01*
X016177Y002767D01*
X016214Y002767D01*
X016361Y002840D02*
X016471Y002840D01*
X016508Y002877D01*
X016508Y002950D01*
X016471Y002987D01*
X016361Y002987D01*
X016361Y003060D02*
X016361Y002840D01*
X016582Y002840D02*
X016582Y002950D01*
X016619Y002987D01*
X016692Y002987D01*
X016692Y002913D02*
X016582Y002913D01*
X016582Y002840D02*
X016692Y002840D01*
X016729Y002877D01*
X016692Y002913D01*
X016803Y002877D02*
X016803Y002950D01*
X016877Y002950D01*
X016950Y002877D02*
X016913Y002840D01*
X016840Y002840D01*
X016803Y002877D01*
X016950Y002877D02*
X016950Y003023D01*
X016913Y003060D01*
X016840Y003060D01*
X016803Y003023D01*
X017024Y002950D02*
X017024Y002913D01*
X017171Y002913D01*
X017171Y002877D02*
X017171Y002950D01*
X017134Y002987D01*
X017061Y002987D01*
X017024Y002950D01*
X017061Y002840D02*
X017134Y002840D01*
X017171Y002877D01*
X017245Y002840D02*
X017355Y002840D01*
X017392Y002877D01*
X017392Y002950D01*
X017355Y002987D01*
X017245Y002987D01*
X017245Y003060D02*
X017245Y002840D01*
X017466Y002840D02*
X017539Y002840D01*
X017503Y002840D02*
X017503Y002987D01*
X017539Y002987D01*
X017613Y002987D02*
X017724Y002987D01*
X017760Y002950D01*
X017724Y002913D01*
X017650Y002913D01*
X017613Y002877D01*
X017650Y002840D01*
X017760Y002840D01*
X017834Y002840D02*
X017834Y002950D01*
X017871Y002987D01*
X017981Y002987D01*
X017981Y002840D01*
X018055Y002840D02*
X018129Y002840D01*
X018092Y002840D02*
X018092Y002987D01*
X018129Y002987D01*
X018092Y003060D02*
X018092Y003097D01*
X017503Y003097D02*
X017503Y003060D01*
D12*
X017633Y003651D02*
X017633Y003848D01*
X017081Y003848D02*
X017081Y003651D01*
X016471Y003651D02*
X016471Y003848D01*
X015920Y003848D02*
X015920Y003651D01*
X018243Y003651D02*
X018243Y003848D01*
X018794Y003848D02*
X018794Y003651D01*
X019404Y003651D02*
X019404Y003848D01*
X019955Y003848D02*
X019955Y003651D01*
X020572Y003651D02*
X020572Y003848D01*
X021124Y003848D02*
X021124Y003651D01*
X013341Y003651D02*
X013341Y003848D01*
X012790Y003848D02*
X012790Y003651D01*
X012160Y003651D02*
X012160Y003848D01*
X011609Y003848D02*
X011609Y003651D01*
X010999Y003651D02*
X010999Y003848D01*
X010447Y003848D02*
X010447Y003651D01*
X009818Y003651D02*
X009818Y003848D01*
X009266Y003848D02*
X009266Y003651D01*
X008643Y003651D02*
X008643Y003848D01*
X008092Y003848D02*
X008092Y003651D01*
M02*
