G75*
G70*
%OFA0B0*%
%FSLAX24Y24*%
%IPPOS*%
%LPD*%
%AMOC8*
5,1,8,0,0,1.08239X$1,22.5*
%
%ADD10C,0.0000*%
%ADD11R,0.0870X0.0240*%
%ADD12R,0.0394X0.0433*%
%ADD13R,0.0091X0.0374*%
%ADD14R,0.0374X0.0091*%
%ADD15R,0.0945X0.0945*%
%ADD16R,0.0413X0.0425*%
%ADD17OC8,0.0740*%
%ADD18R,0.0276X0.0276*%
%ADD19C,0.0100*%
%ADD20C,0.0080*%
%ADD21C,0.0238*%
D10*
X006793Y006773D02*
X006793Y011439D01*
X014254Y011439D01*
X014254Y006773D01*
X006793Y006773D01*
D11*
X009352Y007206D03*
X010494Y007206D03*
D12*
X008565Y009569D03*
X007895Y009569D03*
X007856Y010769D03*
X008387Y010769D03*
X009057Y010769D03*
X007187Y010769D03*
D13*
X009450Y010175D03*
X009628Y010175D03*
X009805Y010175D03*
X009982Y010175D03*
X010159Y010175D03*
X010336Y010175D03*
X010513Y010175D03*
X010513Y008533D03*
X010336Y008533D03*
X010159Y008533D03*
X009982Y008533D03*
X009805Y008533D03*
X009628Y008533D03*
X009450Y008533D03*
D14*
X009155Y008820D03*
X009155Y008998D03*
X009155Y009175D03*
X009155Y009352D03*
X009155Y009529D03*
X009155Y009706D03*
X009155Y009883D03*
X010797Y009883D03*
X010797Y009706D03*
X010797Y009529D03*
X010797Y009352D03*
X010797Y009175D03*
X010797Y008998D03*
X010797Y008820D03*
D15*
X009982Y009352D03*
D16*
X010326Y010769D03*
X009637Y010769D03*
X007885Y010139D03*
X007196Y010139D03*
X009578Y007836D03*
X010267Y007836D03*
D17*
X012612Y008037D03*
X013612Y008037D03*
X013612Y009037D03*
X012612Y009037D03*
X012612Y010037D03*
X013612Y010037D03*
D18*
X011360Y009470D03*
X011360Y009076D03*
X011320Y008624D03*
X011301Y008230D03*
X011143Y007836D03*
X010750Y007836D03*
X008643Y008230D03*
X008643Y008643D03*
X008210Y008643D03*
X007797Y008643D03*
X007797Y007954D03*
D19*
X009352Y007206D02*
X009578Y007433D01*
X009578Y007836D01*
X009933Y007482D01*
X011429Y007482D01*
X011635Y007688D01*
X011635Y008191D01*
X011635Y010592D01*
X011458Y010769D01*
X010326Y010769D01*
X010336Y010759D01*
X010336Y010175D01*
X010336Y010415D01*
X009982Y010425D02*
X009637Y010769D01*
X009982Y010425D02*
X009982Y010175D01*
X009982Y009352D01*
X009982Y008533D01*
X009982Y008112D01*
X010257Y007836D01*
X010267Y007836D02*
X010376Y007836D01*
X009805Y008063D02*
X009578Y007836D01*
X009805Y008063D02*
X009805Y008533D01*
D20*
X009628Y008533D02*
X009628Y008250D01*
X009569Y008191D01*
X009254Y008191D01*
X008939Y007876D01*
X007876Y007876D01*
X007797Y007954D01*
X007620Y007620D02*
X007462Y007777D01*
X007462Y009135D01*
X007895Y009569D01*
X008151Y009175D02*
X007797Y008820D01*
X007797Y008643D01*
X008210Y008643D02*
X008210Y008840D01*
X008368Y008998D01*
X009155Y008998D01*
X009155Y009175D02*
X008151Y009175D01*
X008565Y009569D02*
X008565Y009943D01*
X008939Y009883D02*
X009155Y009883D01*
X008939Y009883D02*
X008387Y010435D01*
X008387Y010769D01*
X007856Y010769D01*
X007856Y010169D01*
X007885Y010139D01*
X007196Y010139D02*
X007187Y010149D01*
X007187Y010454D01*
X007187Y010769D01*
X008722Y010415D02*
X008761Y010376D01*
X008722Y010415D02*
X008722Y011163D01*
X008840Y011281D01*
X012659Y011281D01*
X013612Y010328D01*
X013612Y010037D01*
X013112Y010376D02*
X013112Y009537D01*
X013612Y009037D01*
X013112Y009313D02*
X013112Y008537D01*
X013612Y008037D01*
X012612Y008037D02*
X011789Y008037D01*
X011635Y008191D01*
X011301Y008230D02*
X011261Y008269D01*
X011104Y008269D01*
X010797Y008576D01*
X010797Y008820D01*
X010525Y008533D02*
X011143Y007915D01*
X011143Y007836D01*
X010750Y007836D02*
X010750Y008092D01*
X010671Y008171D01*
X010395Y008171D01*
X010336Y008230D01*
X010336Y008533D01*
X010513Y008533D02*
X010525Y008533D01*
X010797Y008998D02*
X011045Y008998D01*
X011104Y008939D01*
X011104Y008840D01*
X011320Y008624D01*
X011360Y009076D02*
X011261Y009175D01*
X010797Y009175D01*
X010797Y009352D02*
X011242Y009352D01*
X011360Y009470D01*
X011084Y009706D02*
X011242Y009824D01*
X011399Y009824D01*
X011084Y009706D02*
X010797Y009706D01*
X010797Y009883D02*
X011053Y010139D01*
X011399Y010139D01*
X011399Y010454D02*
X010793Y010454D01*
X010513Y010175D01*
X010326Y010769D02*
X009972Y011124D01*
X009214Y011124D01*
X009057Y010966D01*
X009057Y010769D01*
X008565Y009569D02*
X008781Y009352D01*
X009155Y009352D01*
X009155Y008820D02*
X008899Y008820D01*
X008761Y008683D01*
X008643Y008643D01*
X008269Y008683D02*
X008210Y008643D01*
X008643Y008230D02*
X008880Y008230D01*
X009183Y008533D01*
X009450Y008533D01*
X009578Y007836D02*
X009362Y007620D01*
X007620Y007620D01*
X010494Y007206D02*
X010809Y007206D01*
X012502Y009037D02*
X012612Y009037D01*
X012502Y009037D02*
X011891Y009647D01*
X011891Y009824D01*
X012128Y009785D02*
X012128Y009903D01*
X011891Y010139D01*
X011891Y010454D02*
X012029Y010592D01*
X012895Y010592D01*
X013112Y010376D01*
X012383Y009529D02*
X012128Y009785D01*
X012383Y009529D02*
X012895Y009529D01*
X013112Y009313D01*
D21*
X011891Y009824D03*
X011891Y010139D03*
X011891Y010454D03*
X011399Y010454D03*
X011399Y010139D03*
X011399Y009824D03*
X009982Y009352D03*
X008565Y009943D03*
X008761Y010376D03*
X007187Y010454D03*
X010376Y007836D03*
X010809Y007206D03*
M02*
