G75*
G70*
%OFA0B0*%
%FSLAX24Y24*%
%IPPOS*%
%LPD*%
%AMOC8*
5,1,8,0,0,1.08239X$1,22.5*
%
%ADD10C,0.0000*%
%ADD11C,0.0030*%
%ADD12C,0.0050*%
%ADD13C,0.0100*%
%ADD14C,0.0080*%
D10*
X006793Y006773D02*
X006793Y011439D01*
X014254Y011439D01*
X014254Y006773D01*
X006793Y006773D01*
D11*
X008186Y007185D02*
X008256Y007115D01*
X008326Y007185D01*
X008326Y007325D01*
X008407Y007290D02*
X008407Y007150D01*
X008442Y007115D01*
X008512Y007115D01*
X008547Y007150D01*
X008628Y007150D02*
X008663Y007115D01*
X008733Y007115D01*
X008768Y007150D01*
X008768Y007290D02*
X008733Y007325D01*
X008663Y007325D01*
X008628Y007290D01*
X008628Y007150D01*
X008547Y007290D02*
X008512Y007325D01*
X008442Y007325D01*
X008407Y007290D01*
X008186Y007325D02*
X008186Y007185D01*
X011040Y007130D02*
X011075Y007095D01*
X011145Y007095D01*
X011180Y007130D01*
X011180Y007200D01*
X011110Y007200D01*
X011040Y007270D02*
X011040Y007130D01*
X011040Y007270D02*
X011075Y007305D01*
X011145Y007305D01*
X011180Y007270D01*
X011261Y007305D02*
X011401Y007095D01*
X011401Y007305D01*
X011482Y007305D02*
X011587Y007305D01*
X011622Y007270D01*
X011622Y007130D01*
X011587Y007095D01*
X011482Y007095D01*
X011482Y007305D01*
X011261Y007305D02*
X011261Y007095D01*
X013104Y010647D02*
X013139Y010647D01*
X013174Y010682D01*
X013174Y010857D01*
X013069Y010857D01*
X013034Y010822D01*
X013034Y010752D01*
X013069Y010717D01*
X013174Y010717D01*
X013255Y010752D02*
X013255Y010822D01*
X013290Y010857D01*
X013360Y010857D01*
X013395Y010822D01*
X013395Y010787D01*
X013255Y010787D01*
X013255Y010752D02*
X013290Y010717D01*
X013360Y010717D01*
X013385Y011002D02*
X013420Y011002D01*
X013455Y011037D01*
X013455Y011212D01*
X013350Y011212D01*
X013315Y011177D01*
X013315Y011107D01*
X013350Y011072D01*
X013455Y011072D01*
X013536Y011107D02*
X013536Y011177D01*
X013571Y011212D01*
X013641Y011212D01*
X013676Y011177D01*
X013676Y011142D01*
X013536Y011142D01*
X013536Y011107D02*
X013571Y011072D01*
X013641Y011072D01*
X013792Y011107D02*
X013827Y011072D01*
X013792Y011107D02*
X013792Y011247D01*
X013757Y011212D02*
X013827Y011212D01*
X013904Y011177D02*
X013939Y011212D01*
X014044Y011212D01*
X014009Y011142D02*
X013939Y011142D01*
X013904Y011177D01*
X013904Y011072D02*
X014009Y011072D01*
X014044Y011107D01*
X014009Y011142D01*
X013988Y010928D02*
X013988Y010717D01*
X014058Y010717D02*
X013917Y010717D01*
X013917Y010857D02*
X013988Y010928D01*
X013837Y010857D02*
X013767Y010717D01*
X013697Y010857D01*
X013234Y011072D02*
X013129Y011072D01*
X013094Y011107D01*
X013094Y011177D01*
X013129Y011212D01*
X013234Y011212D01*
X013234Y011282D02*
X013234Y011072D01*
X013013Y011072D02*
X012908Y011072D01*
X012873Y011107D01*
X012908Y011142D01*
X013013Y011142D01*
X013013Y011177D02*
X013013Y011072D01*
X013013Y011177D02*
X012978Y011212D01*
X012908Y011212D01*
X012792Y011247D02*
X012757Y011282D01*
X012687Y011282D01*
X012652Y011247D01*
X012652Y011107D01*
X012687Y011072D01*
X012757Y011072D01*
X012792Y011107D01*
X012792Y011177D01*
X012722Y011177D01*
X012571Y011177D02*
X012536Y011212D01*
X012466Y011212D01*
X012431Y011177D01*
X012431Y011107D01*
X012466Y011072D01*
X012536Y011072D01*
X012571Y011142D02*
X012431Y011142D01*
X012350Y011212D02*
X012245Y011212D01*
X012210Y011177D01*
X012210Y011107D01*
X012245Y011072D01*
X012350Y011072D01*
X012350Y011282D01*
X012571Y011177D02*
X012571Y011142D01*
X012476Y010928D02*
X012406Y010928D01*
X012371Y010893D01*
X012371Y010752D01*
X012406Y010717D01*
X012476Y010717D01*
X012511Y010752D01*
X012511Y010822D01*
X012441Y010822D01*
X012511Y010893D02*
X012476Y010928D01*
X012627Y010857D02*
X012697Y010857D01*
X012732Y010822D01*
X012732Y010717D01*
X012627Y010717D01*
X012592Y010752D01*
X012627Y010787D01*
X012732Y010787D01*
X012813Y010752D02*
X012848Y010717D01*
X012953Y010717D01*
X012953Y010857D01*
X012813Y010857D02*
X012813Y010752D01*
X012293Y010717D02*
X012258Y010752D01*
X012258Y010893D01*
X012223Y010857D02*
X012293Y010857D01*
X012146Y010857D02*
X012076Y010857D01*
X012111Y010893D02*
X012111Y010752D01*
X012146Y010717D01*
X011995Y010717D02*
X011890Y010717D01*
X011855Y010752D01*
X011890Y010787D01*
X011995Y010787D01*
X011995Y010822D02*
X011995Y010717D01*
X011995Y010822D02*
X011960Y010857D01*
X011890Y010857D01*
X011774Y010857D02*
X011739Y010822D01*
X011634Y010822D01*
X011553Y010822D02*
X011518Y010857D01*
X011448Y010857D01*
X011413Y010822D01*
X011413Y010752D01*
X011448Y010717D01*
X011518Y010717D01*
X011553Y010752D01*
X011553Y010822D01*
X011634Y010717D02*
X011739Y010717D01*
X011774Y010752D01*
X011774Y010787D01*
X011739Y010822D01*
X011774Y010857D02*
X011774Y010893D01*
X011739Y010928D01*
X011634Y010928D01*
X011634Y010717D01*
X011332Y010822D02*
X011332Y010893D01*
X011297Y010928D01*
X011192Y010928D01*
X011192Y010717D01*
X011192Y010787D02*
X011297Y010787D01*
X011332Y010822D01*
X011115Y010717D02*
X011045Y010717D01*
X011080Y010717D02*
X011080Y010857D01*
X011045Y010857D01*
X011080Y010928D02*
X011080Y010963D01*
X010824Y010928D02*
X010824Y010717D01*
X010964Y010717D01*
X011473Y011072D02*
X011543Y011072D01*
X011508Y011072D02*
X011508Y011212D01*
X011473Y011212D01*
X011508Y011282D02*
X011508Y011317D01*
X011621Y011212D02*
X011621Y011072D01*
X011761Y011072D02*
X011761Y011177D01*
X011726Y011212D01*
X011621Y011212D01*
X011842Y011177D02*
X011877Y011212D01*
X011982Y011212D01*
X011947Y011142D02*
X011877Y011142D01*
X011842Y011177D01*
X011842Y011072D02*
X011947Y011072D01*
X011982Y011107D01*
X011947Y011142D01*
X012063Y011212D02*
X012098Y011212D01*
X012098Y011072D01*
X012063Y011072D02*
X012133Y011072D01*
X012098Y011282D02*
X012098Y011317D01*
D12*
X010769Y010139D02*
X010769Y010021D01*
X010769Y010139D02*
X010651Y010139D01*
X010041Y010631D02*
X010041Y010907D01*
X009923Y010907D02*
X009923Y010631D01*
X009313Y010139D02*
X009194Y010139D01*
X009194Y010021D01*
X008781Y010631D02*
X008663Y010631D01*
X008663Y010907D02*
X008781Y010907D01*
X007580Y010907D02*
X007462Y010907D01*
X007462Y010631D02*
X007580Y010631D01*
X007600Y010277D02*
X007600Y010002D01*
X007482Y010002D02*
X007482Y010277D01*
X008171Y009706D02*
X008289Y009706D01*
X008289Y009431D02*
X008171Y009431D01*
X009194Y008683D02*
X009194Y008565D01*
X009313Y008565D01*
X009864Y007974D02*
X009864Y007698D01*
X009982Y007698D02*
X009982Y007974D01*
X010651Y008565D02*
X010769Y008565D01*
X010769Y008683D01*
D13*
X009202Y008407D02*
X009204Y008415D01*
X009209Y008422D01*
X009216Y008426D01*
X009224Y008427D01*
X009232Y008424D01*
X009238Y008419D01*
X009242Y008411D01*
X009242Y008403D01*
X009238Y008395D01*
X009232Y008390D01*
X009224Y008387D01*
X009216Y008388D01*
X009209Y008392D01*
X009204Y008399D01*
X009202Y008407D01*
D14*
X012112Y008287D02*
X012112Y007787D01*
X012362Y007537D01*
X013862Y007537D01*
X014112Y007787D01*
X014112Y008287D01*
X013862Y008537D01*
X012362Y008537D01*
X012112Y008787D01*
X012112Y009287D01*
X012362Y009537D01*
X013862Y009537D01*
X014112Y009787D01*
X014112Y010287D01*
X013862Y010537D01*
X012362Y010537D01*
X012112Y010287D01*
X012112Y009787D01*
X012362Y009537D01*
X012362Y008537D02*
X012112Y008287D01*
X013862Y008537D02*
X014112Y008787D01*
X014112Y009287D01*
X013862Y009537D01*
M02*
